<mxfile host="app.diagrams.net" modified="2020-09-14T16:44:24.456Z" agent="5.0 (Windows)" etag="zKDD67gDzST_5D8VUJ-G" version="13.6.10" type="github">
  <diagram id="xkPVVU98Jwx8Gxr5zT9T" name="Page-1">
    <mxGraphModel dx="868" dy="479" grid="1" gridSize="10" guides="1" tooltips="1" connect="1" arrows="1" fold="1" page="1" pageScale="1" pageWidth="850" pageHeight="1100" math="0" shadow="0">
      <root>
        <mxCell id="0" />
        <mxCell id="1" parent="0" />
        <mxCell id="MTbE8OdjCK04OEq8-i73-1" value="Start" style="ellipse;whiteSpace=wrap;html=1;" vertex="1" parent="1">
          <mxGeometry x="130" y="280" width="120" height="80" as="geometry" />
        </mxCell>
        <mxCell id="MTbE8OdjCK04OEq8-i73-2" value="Enter Starting Balance:" style="shape=parallelogram;perimeter=parallelogramPerimeter;whiteSpace=wrap;html=1;fixedSize=1;" vertex="1" parent="1">
          <mxGeometry x="150" y="410" width="120" height="60" as="geometry" />
        </mxCell>
      </root>
    </mxGraphModel>
  </diagram>
</mxfile>
